<svg width="32" height="32" viewBox="0 0 32 32" fill="none" xmlns="http://www.w3.org/2000/svg">
<path opacity="0.5" d="M4.7998 9.6C4.7998 8.32696 5.30552 7.10607 6.20569 6.20589C7.10587 5.30572 8.32677 4.8 9.5998 4.8H22.3998C23.6728 4.8 24.8937 5.30572 25.7939 6.20589C26.6941 7.10607 27.1998 8.32696 27.1998 9.6V22.4C27.1998 23.673 26.6941 24.8939 25.7939 25.7941C24.8937 26.6943 23.6728 27.2 22.3998 27.2H9.5998C8.32677 27.2 7.10587 26.6943 6.20569 25.7941C5.30552 24.8939 4.7998 23.673 4.7998 22.4V9.6ZM9.5998 7.2C8.96329 7.2 8.35284 7.45286 7.90275 7.90295C7.45266 8.35303 7.1998 8.96348 7.1998 9.6V22.4C7.1998 23.0365 7.45266 23.647 7.90275 24.0971C8.35284 24.5471 8.96329 24.8 9.5998 24.8H22.3998C23.0363 24.8 23.6468 24.5471 24.0969 24.0971C24.547 23.647 24.7998 23.0365 24.7998 22.4V9.6C24.7998 8.96348 24.547 8.35303 24.0969 7.90295C23.6468 7.45286 23.0363 7.2 22.3998 7.2H9.5998Z" fill="#171717"/>
</svg>
