<svg width="32" height="32" viewBox="0 0 32 32" fill="none" xmlns="http://www.w3.org/2000/svg">
<g clip-path="url(#clip0_4_194)">
<path fill-rule="evenodd" clip-rule="evenodd" d="M23.4044 21.4747C23.6964 21.3286 24.0319 21.2947 24.3472 21.3795C24.6625 21.4643 24.9357 21.6618 25.1151 21.9347L25.1924 22.0707L27.8591 27.404C27.9542 27.5942 28.0025 27.8044 27.9999 28.017C27.9972 28.2297 27.9438 28.4386 27.844 28.6264C27.7441 28.8142 27.6008 28.9754 27.426 29.0965C27.2512 29.2176 27.05 29.2952 26.8391 29.3227L26.6671 29.3333H5.33376C5.12106 29.3334 4.91142 29.2826 4.72236 29.1851C4.5333 29.0876 4.3703 28.9463 4.24698 28.773C4.12365 28.5997 4.04358 28.3994 4.01345 28.1889C3.98331 27.9783 4.004 27.7636 4.07376 27.5627L4.14043 27.4027L6.8071 22.0693C6.95656 21.7604 7.21939 21.521 7.5409 21.4009C7.86241 21.2809 8.21784 21.2894 8.53321 21.4247C8.84859 21.5601 9.09963 21.8119 9.23409 22.1276C9.36855 22.4434 9.37607 22.7988 9.2551 23.12L9.19243 23.2627L7.4911 26.6667H24.5098L22.8084 23.2627C22.6505 22.9465 22.6246 22.5806 22.7364 22.2453C22.8481 21.91 23.0884 21.6329 23.4044 21.4747ZM16.0004 2.66666C18.4758 2.66666 20.8498 3.64999 22.6001 5.40033C24.3504 7.15067 25.3338 9.52464 25.3338 12C25.3338 15.176 23.6151 17.756 21.8364 19.5867C20.8539 20.5846 19.7738 21.4815 18.6124 22.264L18.1151 22.592L17.6724 22.8707C17.6031 22.912 17.5364 22.9507 17.4738 22.9907L17.1311 23.188C16.4271 23.588 15.5738 23.588 14.8698 23.188L14.5271 22.9893L14.1138 22.7373C14.0375 22.6893 13.9615 22.6409 13.8858 22.592L13.3884 22.264C12.227 21.4815 11.147 20.5846 10.1644 19.5867C8.38576 17.756 6.6671 15.176 6.6671 12C6.6671 9.52464 7.65043 7.15067 9.40077 5.40033C11.1511 3.64999 13.5251 2.66666 16.0004 2.66666ZM16.0004 9.33332C15.2932 9.33332 14.6149 9.61427 14.1148 10.1144C13.6147 10.6145 13.3338 11.2927 13.3338 12C13.3338 12.7072 13.6147 13.3855 14.1148 13.8856C14.6149 14.3857 15.2932 14.6667 16.0004 14.6667C16.7077 14.6667 17.386 14.3857 17.886 13.8856C18.3861 13.3855 18.6671 12.7072 18.6671 12C18.6671 11.2927 18.3861 10.6145 17.886 10.1144C17.386 9.61427 16.7077 9.33332 16.0004 9.33332Z" fill="#171717"/>
</g>
<defs>
<clipPath id="clip0_4_194">
<rect width="32" height="32" fill="white"/>
</clipPath>
</defs>
</svg>
