<svg width="25" height="24" viewBox="0 0 25 24" fill="none" xmlns="http://www.w3.org/2000/svg">
<path fill-rule="evenodd" clip-rule="evenodd" d="M12.552 1.25H12.448C11.549 1.25 10.8 1.25 10.206 1.33C9.578 1.414 9.011 1.6 8.556 2.055C8.1 2.511 7.914 3.078 7.83 3.705C7.773 4.132 7.756 5.151 7.752 6.025C5.73 6.092 4.515 6.328 3.672 7.172C2.5 8.343 2.5 10.229 2.5 14C2.5 17.771 2.5 19.657 3.672 20.828C4.843 22 6.729 22 10.5 22H14.5C18.271 22 20.157 22 21.328 20.828C22.5 19.657 22.5 17.771 22.5 14C22.5 10.229 22.5 8.343 21.328 7.172C20.485 6.328 19.27 6.092 17.248 6.026C17.244 5.151 17.228 4.132 17.17 3.706C17.086 3.078 16.9 2.511 16.444 2.056C15.989 1.6 15.422 1.414 14.794 1.33C14.2 1.25 13.45 1.25 12.552 1.25ZM15.748 6.002C15.743 5.155 15.729 4.244 15.684 3.905C15.621 3.444 15.514 3.246 15.384 3.116C15.254 2.986 15.056 2.879 14.594 2.816C14.112 2.752 13.464 2.75 12.5 2.75C11.536 2.75 10.888 2.752 10.405 2.817C9.944 2.879 9.746 2.986 9.616 3.117C9.486 3.247 9.379 3.444 9.316 3.905C9.271 4.245 9.256 5.155 9.252 6.002C9.643 6 10.06 6 10.5 6H14.5C14.941 6 15.357 6 15.748 6.002ZM12.5 9.25C12.6989 9.25 12.8897 9.32902 13.0303 9.46967C13.171 9.61032 13.25 9.80109 13.25 10V10.01C14.339 10.284 15.25 11.143 15.25 12.333C15.25 12.5319 15.171 12.7227 15.0303 12.8633C14.8897 13.004 14.6989 13.083 14.5 13.083C14.3011 13.083 14.1103 13.004 13.9697 12.8633C13.829 12.7227 13.75 12.5319 13.75 12.333C13.75 11.949 13.324 11.417 12.5 11.417C11.676 11.417 11.25 11.949 11.25 12.333C11.25 12.717 11.676 13.25 12.5 13.25C13.885 13.25 15.25 14.21 15.25 15.667C15.25 16.857 14.339 17.715 13.25 17.99V18C13.25 18.1989 13.171 18.3897 13.0303 18.5303C12.8897 18.671 12.6989 18.75 12.5 18.75C12.3011 18.75 12.1103 18.671 11.9697 18.5303C11.829 18.3897 11.75 18.1989 11.75 18V17.99C10.661 17.716 9.75 16.857 9.75 15.667C9.75 15.4681 9.82902 15.2773 9.96967 15.1367C10.1103 14.996 10.3011 14.917 10.5 14.917C10.6989 14.917 10.8897 14.996 11.0303 15.1367C11.171 15.2773 11.25 15.4681 11.25 15.667C11.25 16.051 11.676 16.583 12.5 16.583C13.324 16.583 13.75 16.051 13.75 15.667C13.75 15.283 13.324 14.75 12.5 14.75C11.115 14.75 9.75 13.79 9.75 12.333C9.75 11.143 10.661 10.284 11.75 10.01V10C11.75 9.80109 11.829 9.61032 11.9697 9.46967C12.1103 9.32902 12.3011 9.25 12.5 9.25Z" fill="#171717"/>
</svg>
