<svg width="25" height="24" viewBox="0 0 25 24" fill="none" xmlns="http://www.w3.org/2000/svg">
<path d="M8.5 11C9.56087 11 10.5783 10.5786 11.3284 9.82843C12.0786 9.07828 12.5 8.06087 12.5 7C12.5 5.93913 12.0786 4.92172 11.3284 4.17157C10.5783 3.42143 9.56087 3 8.5 3C7.43913 3 6.42172 3.42143 5.67157 4.17157C4.92143 4.92172 4.5 5.93913 4.5 7C4.5 8.06087 4.92143 9.07828 5.67157 9.82843C6.42172 10.5786 7.43913 11 8.5 11ZM17.5 11C18.2956 11 19.0587 10.6839 19.6213 10.1213C20.1839 9.55871 20.5 8.79565 20.5 8C20.5 7.20435 20.1839 6.44129 19.6213 5.87868C19.0587 5.31607 18.2956 5 17.5 5C16.7044 5 15.9413 5.31607 15.3787 5.87868C14.8161 6.44129 14.5 7.20435 14.5 8C14.5 8.79565 14.8161 9.55871 15.3787 10.1213C15.9413 10.6839 16.7044 11 17.5 11ZM3.875 12.5C3.37772 12.5 2.90081 12.6975 2.54917 13.0492C2.19754 13.4008 2 13.8777 2 14.375V15C2 15 2 19.5 8.5 19.5C9.805 19.5 10.8475 19.3185 11.681 19.029C11.5605 18.5283 11.4997 18.015 11.5 17.5C11.4991 16.5712 11.6976 15.6531 12.0823 14.8077C12.4669 13.9624 13.0287 13.2095 13.7295 12.6C13.5395 12.535 13.3365 12.5 13.125 12.5H3.875ZM23.5 17.5C23.5 20.5375 21.0375 23 18 23C14.9625 23 12.5 20.5375 12.5 17.5C12.5 14.4625 14.9625 12 18 12C21.0375 12 23.5 14.4625 23.5 17.5ZM18.595 14.2005C18.5586 14.0707 18.4807 13.9564 18.3733 13.875C18.2659 13.7936 18.1348 13.7495 18 13.7495C17.8652 13.7495 17.7341 13.7936 17.6267 13.875C17.5193 13.9564 17.4414 14.0707 17.405 14.2005L16.808 16.1155H14.877C14.2705 16.1155 14.019 16.924 14.509 17.2955L16.0715 18.4785L15.4745 20.3935C15.2875 20.994 15.947 21.4935 16.4375 21.1225L18 19.939L19.5625 21.1225C20.0525 21.494 20.7125 20.994 20.525 20.3935L19.9285 18.4785L21.491 17.295C21.981 16.924 21.7295 16.115 21.123 16.115H19.192L18.595 14.2005Z" fill="#171717"/>
</svg>
