<svg width="32" height="32" viewBox="0 0 32 32" fill="none" xmlns="http://www.w3.org/2000/svg">
<path d="M22.0745 17.208L21.4678 17.812C21.4678 17.812 20.0238 19.2467 16.0838 15.3293C12.1438 11.412 13.5878 9.97733 13.5878 9.97733L13.9692 9.59599C14.9118 8.65999 15.0012 7.15599 14.1785 6.05733L12.4985 3.81333C11.4798 2.45333 9.51317 2.27333 8.34651 3.43333L6.25317 5.51333C5.67584 6.08933 5.28917 6.83333 5.33584 7.65999C5.45584 9.77599 6.41317 14.3267 11.7518 19.636C17.4145 25.2653 22.7278 25.4893 24.8998 25.2867C25.5878 25.2227 26.1852 24.8733 26.6665 24.3933L28.5598 22.5107C29.8398 21.24 29.4798 19.06 27.8425 18.1707L25.2958 16.7853C24.2212 16.2013 22.9145 16.3733 22.0745 17.208Z" fill="#171717"/>
</svg>
