<svg width="25" height="24" viewBox="0 0 25 24" fill="none" xmlns="http://www.w3.org/2000/svg">
<path d="M19.5 13H17.5C17.2167 13 16.979 12.904 16.787 12.712C16.595 12.52 16.4993 12.2827 16.5 12C16.5 11.7167 16.596 11.479 16.788 11.287C16.98 11.095 17.2173 10.9993 17.5 11H19.5C19.7833 11 20.021 11.096 20.213 11.288C20.405 11.48 20.5007 11.7173 20.5 12C20.5 12.2833 20.404 12.521 20.212 12.713C20.02 12.905 19.7827 13.0007 19.5 13ZM15.1 16.8C15.2667 16.5667 15.4833 16.4333 15.75 16.4C16.0167 16.3667 16.2667 16.4333 16.5 16.6L18.1 17.8C18.3333 17.9667 18.4667 18.1833 18.5 18.45C18.5333 18.7167 18.4667 18.9667 18.3 19.2C18.1333 19.4333 17.9167 19.5667 17.65 19.6C17.3833 19.6333 17.1333 19.5667 16.9 19.4L15.3 18.2C15.0667 18.0333 14.9333 17.8167 14.9 17.55C14.8667 17.2833 14.9333 17.0333 15.1 16.8ZM18.1 6.2L16.5 7.4C16.2667 7.56666 16.0167 7.63333 15.75 7.6C15.4833 7.56666 15.2667 7.43333 15.1 7.2C14.9333 6.96666 14.8667 6.71666 14.9 6.45C14.9333 6.18333 15.0667 5.96666 15.3 5.8L16.9 4.6C17.1333 4.43333 17.3833 4.36666 17.65 4.4C17.9167 4.43333 18.1333 4.56666 18.3 4.8C18.4667 5.03333 18.5333 5.28333 18.5 5.55C18.4667 5.81666 18.3333 6.03333 18.1 6.2ZM7.5 15H4.5C4.21667 15 3.979 14.904 3.787 14.712C3.595 14.52 3.49934 14.2827 3.5 14V10C3.5 9.71666 3.596 9.479 3.788 9.287C3.98 9.095 4.21734 8.99933 4.5 9H7.5L10.8 5.7C11.1167 5.38333 11.4793 5.31233 11.888 5.487C12.2967 5.66166 12.5007 5.97433 12.5 6.425V17.575C12.5 18.025 12.2957 18.3377 11.887 18.513C11.4783 18.6883 11.116 18.6173 10.8 18.3L7.5 15Z" fill="#171717"/>
</svg>
