<svg width="26" height="25" viewBox="0 0 26 25" fill="none" xmlns="http://www.w3.org/2000/svg">
<path d="M25.3856 8.93237C25.3856 8.71976 25.2943 8.51493 25.1326 8.37491L15.7649 0.18413C15.4833 -0.0621903 15.0582 -0.0621903 14.7765 0.18413L5.48448 8.37232C5.46101 8.39306 5.45058 8.42158 5.43232 8.44492L0.255577 12.9539C0.0938855 13.0939 0 13.2987 0 13.5113V24.072C0 24.4816 0.333815 24.8135 0.745868 24.8135H18.6441C18.8267 24.8135 19.004 24.7461 19.1396 24.6268L25.1352 19.3452C25.1352 19.3452 25.1431 19.3323 25.1483 19.3271C25.19 19.2882 25.2161 19.2415 25.2474 19.1948C25.2708 19.1611 25.2995 19.13 25.3178 19.0911C25.3361 19.0522 25.3387 19.0107 25.3491 18.9693C25.3621 18.9148 25.3804 18.863 25.3804 18.8085C25.3804 18.8007 25.3856 18.7955 25.3856 18.7878V8.92978V8.93237ZM15.2747 1.73206L23.8939 9.26685V18.0462H18.6206V12.8813C18.6206 12.4716 18.2868 12.1397 17.8774 12.1397L12.7502 12.1242C12.552 12.1242 12.3616 12.2019 12.2234 12.342C12.0825 12.482 12.0043 12.6712 12.0043 12.8683V18.0514H6.73107V9.29796L6.91102 9.14239C6.94231 9.11646 6.95796 9.08016 6.98143 9.04905L15.2747 1.73206ZM18.3624 23.3278H1.49434V13.8484L5.23412 10.5918V18.7878C5.23412 19.1974 5.56793 19.5293 5.97999 19.5293H12.745C13.157 19.5293 13.4908 19.1974 13.4908 18.7878V13.6073L17.1263 13.6202V18.7878C17.1263 19.1974 17.4601 19.5293 17.8722 19.5293H22.6707L18.3624 23.3252V23.3278Z" fill="#EAEAEA"/>
</svg>
