<svg width="38" height="38" viewBox="0 0 38 38" fill="none" xmlns="http://www.w3.org/2000/svg">
<circle cx="17.5" cy="17.5" r="17.5" transform="matrix(0.0601354 -0.99819 -0.99819 -0.0601354 34.9365 37.0414)" fill="#D9D9D9"/>
<path d="M17.2 20.6L17.08 17.52H17.84C18.96 17.52 19.8067 17.3133 20.38 16.9C20.9667 16.4733 21.26 15.8133 21.26 14.92C21.26 14.24 21.04 13.6933 20.6 13.28C20.1733 12.8667 19.58 12.66 18.82 12.66C18.1 12.66 17.52 12.86 17.08 13.26C16.64 13.6467 16.3867 14.1733 16.32 14.84H14.32C14.3467 14.04 14.54 13.3333 14.9 12.72C15.26 12.1067 15.7733 11.6267 16.44 11.28C17.1067 10.9333 17.9 10.76 18.82 10.76C20.2467 10.76 21.3533 11.1333 22.14 11.88C22.9267 12.6133 23.32 13.6133 23.32 14.88C23.32 15.7733 23.12 16.52 22.72 17.12C22.32 17.7067 21.7933 18.16 21.14 18.48C20.5 18.7867 19.8133 18.9733 19.08 19.04L19.02 20.6H17.2ZM18.06 25.12C17.5667 25.12 17.1467 24.96 16.8 24.64C16.4533 24.3067 16.28 23.9067 16.28 23.44C16.28 22.9733 16.4533 22.58 16.8 22.26C17.1467 21.94 17.5667 21.78 18.06 21.78C18.5667 21.78 18.9867 21.94 19.32 22.26C19.6667 22.58 19.84 22.9733 19.84 23.44C19.84 23.9067 19.6667 24.3067 19.32 24.64C18.9867 24.96 18.5667 25.12 18.06 25.12Z" fill="#1E1E1E"/>
</svg>
